<svg height="512pt" viewBox="0 0 512.00045 512" width="512pt" xmlns="http://www.w3.org/2000/svg"><path d="m511.140625 462.992188c-2.246094-10.816407-12.835937-17.761719-23.644531-15.519532-10.816406 2.242188-17.765625 12.828125-15.519532 23.644532.109376.539062-.3125.863281-.328124.875h-195.78125c.046874-.203126.109374-.402344.152343-.605469 9.601563-46.253907 50.808594-79.824219 97.976563-79.824219 21.128906 0 41.289062 6.457031 58.308594 18.675781 8.972656 6.441407 21.46875 4.390625 27.914062-4.582031 6.4375-8.972656 4.386719-21.46875-4.585938-27.910156-7.472656-5.367188-15.375-9.9375-23.613281-13.691406 12.410157-13.816407 19.976563-32.066407 19.976563-52.058594 0-43.011719-34.988282-78-78-78-43.007813 0-77.996094 34.988281-77.996094 78 0 20.035156 7.597656 38.328125 20.058594 52.15625-11.082032 5.039062-21.527344 11.527344-31.019532 19.355468-11.390624 9.398438-21.171874 20.519532-29.039062 32.835938-7.867188-12.316406-17.648438-23.4375-29.039062-32.835938-9.316407-7.683593-19.546876-14.074218-30.398438-19.074218 12.085938-13.742188 19.4375-31.742188 19.4375-51.4375 0-43.011719-34.988281-78-78-78-43.007812 0-77.996094 34.988281-77.996094 78 0 19.695312 7.351563 37.695312 19.4375 51.4375-10.851562 5-21.085937 11.390625-30.398437 19.074218-24.609375 20.304688-41.722657 48.625-48.183594 79.75-2.496094 12.019532.507813 24.367188 8.242187 33.871094 7.6875 9.445313 19.074219 14.863282 31.246094 14.863282h431.300782c12.105468 0 23.460937-5.425782 31.15625-14.878907 7.804687-9.59375 10.84375-22.03125 8.335937-34.121093zm-137.144531-188.996094c20.953125 0 38 17.046875 38 38s-17.046875 38-38 38c-20.949219 0-37.996094-17.046875-37.996094-38s17.046875-38 37.996094-38zm-235.996094 1c20.953125 0 38 17.046875 38 38s-17.046875 38-38 38-38-17.046875-38-38 17.046875-38 38-38zm-97.757812 196.988281c-.003907 0-.3125-.148437-.21875-.597656 9.601562-46.253907 50.808593-79.824219 97.976562-79.824219s88.375 33.570312 97.976562 79.824219c.042969.203125.105469.402343.15625.605469h-195.785156c-.0625 0-.097656-.007813-.105468-.007813zm275.757812-376.988281c0-11.042969 8.953125-19.996094 20-19.996094 11.042969 0 20 8.953125 20 19.996094 0 11.046875-8.957031 20-20 20-11.046875 0-20-8.953125-20-20zm-80 0c0-11.042969 8.953125-19.996094 20-19.996094s20 8.953125 20 19.996094c0 11.046875-8.953125 20-20 20s-20-8.953125-20-20zm-80 0c0-11.042969 8.953125-19.996094 20-19.996094s20 8.953125 20 19.996094c0 11.046875-8.953125 20-20 20s-20-8.953125-20-20zm-6 95h10.976562c-.109374 3.214844-.972656 7-3.085937 11.519531-3.5 7.46875-2.054687 16.320313 3.640625 22.289063 5.695312 5.964843 14.464844 7.828124 22.09375 4.683593 20.238281-8.34375 36.503906-21.265625 48.492188-38.492187h47.105468c12.191406 16.671875 28.558594 29.539062 48.800782 38.34375 2.570312 1.117187 5.28125 1.660156 7.96875 1.660156 5.5 0 10.890624-2.269531 14.765624-6.503906 5.765626-6.304688 6.890626-15.574219 2.800782-23.074219-2.316406-4.246094-3.328125-7.625-3.515625-10.425781h11.957031c44.109375 0 80-35.886719 80-79.996094v-30c0-44.113281-35.890625-80-80-80h-211.996094c-44.113281 0-80 35.886719-80 80v30c0 44.109375 35.882813 79.996094 79.996094 79.996094zm-40-109.996094c0-22.058594 17.945312-40 40-40h212c22.054688 0 39.996094 17.941406 39.996094 40v29.996094c0 22.058594-17.941406 40-39.996094 40h-26c-6.6875 0-12.933594 3.34375-16.640625 8.90625-2.027344 3.039062-3.972656 6.535156-5.5625 10.460937-2.390625-2.945312-4.566406-6.097656-6.535156-9.46875-3.589844-6.128906-10.160157-9.898437-17.261719-9.898437h-69c-7.308594 0-14.035156 3.984375-17.542969 10.394531-1.777343 3.25-3.734375 6.28125-5.878906 9.101563-1.0625-3.023438-2.378906-6.003907-3.945313-8.929688-3.476562-6.503906-10.257812-10.5625-17.632812-10.5625h-26c-22.054688 0-40-17.945312-40-40zm0 0"/></svg>