<svg height="512pt" viewBox="0 0 512.00099 512" width="512pt" xmlns="http://www.w3.org/2000/svg"><path d="m21.753906 305.089844c.8125 0 1.636719-.050782 2.464844-.152344 10.964844-1.347656 18.757812-11.328125 17.410156-22.289062-.269531-2.207032-.507812-4.421876-.710937-6.648438h28.085937c11.042969 0 20-8.953125 20-20s-8.957031-20-20-20h-28.066406c3.566406-38.691406 17.375-74.460938 38.691406-104.554688 16.0625 5.628907 34.109375 10.417969 53.597656 14.277344-5.847656 26.804688-9.296874 56.136719-10.058593 86.78125-.273438 11.042969 8.453125 20.214844 19.496093 20.488282.171876.003906.339844.007812.507813.007812 10.8125 0 19.714844-8.628906 19.984375-19.503906.730469-29.449219 4.113281-56.964844 9.632812-81.484375 20.238282 2.503906 41.464844 4.101562 63.210938 4.707031v33.28125c0 11.046875 8.953125 20 20 20s20-8.953125 20-20v-33.28125c22.019531-.617188 43.539062-2.25 64.039062-4.816406 5.761719 25.148437 9.136719 53.101562 9.824219 82.5625.253907 10.886718 9.15625 19.535156 19.988281 19.535156.15625 0 .316407-.003906.472657-.007812 11.042969-.257813 19.785156-9.417969 19.527343-20.460938-.722656-31.0625-4.253906-60.808594-10.289062-87.988281 19.195312-3.824219 36.976562-8.554688 52.804688-14.105469 21.320312 30.097656 35.125 65.867188 38.695312 104.5625h-33.066406c-11.042969 0-20 8.953125-20 20 0 11.042969 8.957031 20 20 20h33.085937c-.203125 2.222656-.441406 4.441406-.710937 6.648438-1.347656 10.960937 6.445312 20.941406 17.410156 22.289062.828125.101562 1.648438.152344 2.464844.152344 9.957031 0 18.578125-7.429688 19.824218-17.5625 1.277344-10.390625 1.925782-20.996094 1.925782-31.53125 0-68.378906-26.628906-132.664063-74.980469-181.015625-48.351563-48.351563-112.636719-74.980469-181.015625-74.980469s-132.667969 26.628906-181.019531 74.980469c-48.351563 48.351562-74.97656275 112.636719-74.97656275 181.015625 0 10.535156.64453175 21.140625 1.92187475 31.53125 1.25 10.136718 9.871094 17.5625 19.828125 17.5625zm86.464844-206.464844c16.847656-15.828125 36.222656-28.984375 57.449219-38.800781-2.144531 3.515625-4.230469 7.164062-6.242188 10.96875-5.816406 11.023437-10.996093 23.203125-15.496093 36.3125-12.65625-2.417969-24.617188-5.253907-35.710938-8.480469zm76.027344 14.503906c12.945312-34.4375 30.976562-58.921875 51.753906-68.566406v72.144531c-17.789062-.519531-35.136719-1.730469-51.753906-3.578125zm91.753906 3.574219v-72.117187c20.0625 9.355468 34.285156 30.992187 41.867188 45.246093 3.816406 7.171875 7.316406 14.941407 10.496093 23.222657-16.8125 1.890624-34.378906 3.121093-52.363281 3.648437zm77.179688-45.660156c-2.019532-3.796875-4.117188-7.4375-6.273438-10.949219 21 9.78125 40.175781 22.839844 56.863281 38.519531-10.90625 3.171875-22.652343 5.964844-35.074219 8.359375-4.515624-12.949218-9.699218-24.996094-15.515624-35.929687zm112.691406 337.054687c7.617187-10.414062 12.125-23.238281 12.125-37.097656 0-34.738281-28.261719-63-62.996094-63-34.738281 0-63 28.261719-63 63 0 13.824219 4.488281 26.617188 12.070312 37.019531-.316406.1875-.636718.363281-.953124.558594-6.136719-7.925781-13.160157-15.203125-20.964844-21.640625-8.75-7.214844-18.339844-13.253906-28.5-18.03125 10.824218-13 17.347656-29.707031 17.347656-47.90625 0-41.355469-33.644531-75-75-75s-75 33.644531-75 75c0 18.199219 6.523438 34.90625 17.347656 47.90625-10.160156 4.777344-19.75 10.8125-28.5 18.03125-7.808594 6.441406-14.828125 13.71875-20.972656 21.648438-.3125-.195313-.628906-.378907-.945312-.566407 7.582031-10.402343 12.070312-23.195312 12.070312-37.023437 0-34.738282-28.261719-63-62.996094-63-34.738281 0-63 28.261718-63 63 0 13.863281 4.507813 26.6875 12.125 37.101562-22.746094 13.742188-39.746094 36.523438-45.421875 63.851563-2.050781 9.871093.417969 20.007812 6.769531 27.816406 6.324219 7.769531 15.695313 12.230469 25.714844 12.230469h127.625c.132813 0 .265625-.019532.398438-.023438.242187.003906.484375.023438.726562.023438h187.488282c.375 0 .75-.023438 1.128906-.035156.210937.007812.414062.035156.628906.035156h127.625c10.015625 0 19.390625-4.460938 25.710938-12.230469 6.355468-7.808594 8.820312-17.945313 6.773437-27.816406-5.679687-27.328125-22.679687-50.109375-45.425781-63.851563zm-50.871094-60.097656c12.679688 0 23 10.316406 23 23 0 12.679688-10.320312 22.996094-23 22.996094-12.683594 0-23-10.316406-23-22.996094 0-12.683594 10.316406-23 23-23zm-194-27c0-19.300781 15.703125-35 35-35 19.300781 0 35 15.699219 35 35 0 19.296875-15.699219 35-35 35-19.296875 0-35-15.703125-35-35zm35 74.996094c44.925781 0 84.191406 31.867187 93.550781 75.832031-.058593.070313-.128906.132813-.191406.167969h-186.945313c9.292969-44.054688 48.601563-76 93.585938-76zm-158.996094-47.996094c12.679688 0 22.996094 10.316406 22.996094 23 0 12.679688-10.316406 22.996094-22.996094 22.996094-12.683594 0-23-10.316406-23-22.996094 0-12.683594 10.316406-23 23-23zm-.523437 85.996094h1.046875c11.390625 0 22.359375 3.339844 31.71875 9.511718-2.558594 6.695313-4.597656 13.601563-6.0625 20.660157-.539063 2.605469-.800782 5.226562-.824219 7.828125h-80.179687c8.230468-22.441406 29.882812-38 54.300781-38zm293.140625 38c.007812-2.691406-.25-5.398438-.804688-8.082032-.113281-.535156-.246094-1.0625-.398437-1.578124-1.425781-6.421876-3.320313-12.714844-5.65625-18.828126 9.363281-6.171874 20.339843-9.507812 31.710937-9.507812h1.046875c24.417969 0 46.070313 15.554688 54.300781 37.996094zm0 0"/></svg>